<svg width="720" height="320" viewBox="0 0 720 320" xmlns="http://www.w3.org/2000/svg" font-family="inherit">
  <rect width="100%" height="100%" fill="#ffffff"/>
  <defs>
    <marker id="tier-arr" markerWidth="10" markerHeight="10" refX="9" refY="3" orient="auto">
      <path d="M0,0 L9,3 L0,6 Z" fill="#6b7280"/>
    </marker>
  </defs>
  <rect x="280" y="20" width="160" height="40" rx="6" fill="#f3f4f6" stroke="#9ca3af"/>
  <text x="360" y="45" text-anchor="middle" font-size="13" font-weight="600" fill="#374151">微信用户打开小程序</text>
  <line x1="360" y1="60" x2="360" y2="86" stroke="#6b7280" stroke-width="1.5" marker-end="url(#tier-arr)"/>
  <rect x="270" y="92" width="180" height="44" rx="6" fill="#eeedfe" stroke="#7c3aed"/>
  <text x="360" y="113" text-anchor="middle" font-size="13" font-weight="600" fill="#3c3489">登录 + 身份识别</text>
  <text x="360" y="129" text-anchor="middle" font-size="11" fill="#6b5fb3">user.role 分流</text>
  <text x="465" y="118" font-size="11" fill="#7c3aed" font-style="italic">← 同一小程序入口</text>
  <line x1="360" y1="136" x2="150" y2="192" stroke="#6b7280" stroke-width="1.5" marker-end="url(#tier-arr)"/>
  <line x1="360" y1="136" x2="360" y2="192" stroke="#6b7280" stroke-width="1.5" marker-end="url(#tier-arr)"/>
  <line x1="360" y1="136" x2="570" y2="192" stroke="#6b7280" stroke-width="1.5" marker-end="url(#tier-arr)"/>
  <rect x="60" y="200" width="180" height="100" rx="6" fill="#dbeafe" stroke="#3b82f6"/>
  <text x="150" y="225" text-anchor="middle" font-size="14" font-weight="700" fill="#1e3a8a">应聘方</text>
  <text x="150" y="245" text-anchor="middle" font-size="11" fill="#1e3a8a">C 端 · 求职者(学生)</text>
  <line x1="80" y1="258" x2="220" y2="258" stroke="#93c5fd" stroke-width="0.8"/>
  <text x="150" y="278" text-anchor="middle" font-size="12" fill="#1e3a8a">职位 · 日程 · 我的</text>
  <text x="150" y="294" text-anchor="middle" font-size="10" fill="#6b7280">tabBar 三入口</text>
  <rect x="270" y="200" width="180" height="100" rx="6" fill="#d1fae5" stroke="#059669"/>
  <text x="360" y="225" text-anchor="middle" font-size="14" font-weight="700" fill="#065f46">招聘方</text>
  <text x="360" y="245" text-anchor="middle" font-size="11" fill="#065f46">B 端(轻)· 小商户</text>
  <line x1="290" y1="258" x2="430" y2="258" stroke="#6ee7b7" stroke-width="0.8"/>
  <text x="360" y="278" text-anchor="middle" font-size="12" fill="#065f46">招聘 · 我的</text>
  <text x="360" y="294" text-anchor="middle" font-size="10" fill="#6b7280">tabBar 两入口</text>
  <rect x="480" y="200" width="180" height="100" rx="6" fill="#fed7aa" stroke="#ea580c"/>
  <text x="570" y="225" text-anchor="middle" font-size="14" font-weight="700" fill="#7c2d12">中介方</text>
  <text x="570" y="245" text-anchor="middle" font-size="11" fill="#7c2d12">平台侧 · 预入驻方</text>
  <line x1="500" y1="258" x2="640" y2="258" stroke="#fdba74" stroke-width="0.8"/>
  <text x="570" y="278" text-anchor="middle" font-size="12" fill="#7c2d12">首页 · 待办 · 我的</text>
  <text x="570" y="294" text-anchor="middle" font-size="10" fill="#6b7280">tabBar 三入口</text>
</svg>
