<svg xmlns="http://www.w3.org/2000/svg" width="390" height="736" viewBox="0 0 390 736" font-family="Inter, &#39;PingFang SC&#39;, system-ui, sans-serif"><title>#20–22 · 成单 / 完工</title><g data-name="div"><rect x="0.00" y="0.00" width="390.00" height="736.00" rx="48.00" ry="48.00" fill="rgb(240, 232, 219)"></rect><g data-name="div"></g><g data-name="div"><rect x="0.00" y="0.00" width="390.00" height="100.00" fill="rgb(240, 232, 219)"></rect><g data-name="div"><g data-name="div"><g data-name="span"><text x="52.59" y="39.94" font-family="-apple-system, &#39;SF Pro&#39;, system-ui" font-size="17" font-weight="590" fill="rgb(0, 0, 0)" xml:space="preserve">9:41</text></g></g><g data-name="div"><g data-name="svg icon" transform="translate(279.75 31.00)"><svg width="19" height="12" viewBox="0 0 19 12"><rect x="0" y="7.5" width="3.2" height="4.5" rx="0.7" fill="#000"></rect><rect x="4.8" y="5" width="3.2" height="7" rx="0.7" fill="#000"></rect><rect x="9.6" y="2.5" width="3.2" height="9.5" rx="0.7" fill="#000"></rect><rect x="14.4" y="0" width="3.2" height="12" rx="0.7" fill="#000"></rect></svg></g><g data-name="svg icon" transform="translate(305.75 31.00)"><svg width="17" height="12" viewBox="0 0 17 12"><path d="M8.5 3.2C10.8 3.2 12.9 4.1 14.4 5.6L15.5 4.5C13.7 2.7 11.2 1.5 8.5 1.5C5.8 1.5 3.3 2.7 1.5 4.5L2.6 5.6C4.1 4.1 6.2 3.2 8.5 3.2Z" fill="#000"></path><path d="M8.5 6.8C9.9 6.8 11.1 7.3 12 8.2L13.1 7.1C11.8 5.9 10.2 5.1 8.5 5.1C6.8 5.1 5.2 5.9 3.9 7.1L5 8.2C5.9 7.3 7.1 6.8 8.5 6.8Z" fill="#000"></path><circle cx="8.5" cy="10.5" r="1.5" fill="#000"></circle></svg></g><g data-name="svg icon" transform="translate(329.75 30.00)"><svg width="27" height="14" viewBox="0 0 27 13"><rect x="0.5" y="0.5" width="23" height="12" rx="3.5" stroke="#000" stroke-opacity="0.35" fill="none"></rect><rect x="2" y="2" width="20" height="9" rx="2" fill="#000"></rect><path d="M25 4.5V8.5C25.8 8.2 26.5 7.2 26.5 6.5C26.5 5.8 25.8 4.8 25 4.5Z" fill="#000" fill-opacity="0.4"></path></svg></g></g></g></g><g data-name="div"><g data-name="div"><rect x="289.00" y="58.00" width="87.00" height="32.00" rx="16.00" ry="16.00" fill="rgba(0, 0, 0, 0.05)" stroke="rgba(0, 0, 0, 0.12)" stroke-width="0.8"></rect><g data-name="div"><g data-name="span"></g><g data-name="span"></g><g data-name="span"></g></g><g data-name="div"><rect x="333.74" y="65.00" width="1.00" height="18.00" fill="rgba(0, 0, 0, 0.2)"></rect></g><g data-name="svg icon" transform="translate(349.71 65.00)"><svg width="18" height="18" viewBox="0 0 18 18"><circle cx="9" cy="9" r="7" fill="none" stroke="#000" stroke-width="1.6"></circle><circle cx="9" cy="9" r="2.6" fill="#000"></circle></svg></g></g></g><g data-name="button"><g data-name="svg icon" transform="translate(24.50 64.00)"><svg width="11" height="20" viewBox="0 0 11 20" fill="none"><path d="M9.5 1.5 L1.5 10 L9.5 18.5" stroke="#000" stroke-width="2" stroke-linecap="round" stroke-linejoin="round"></path></svg></g></g><g data-name="div"><g data-name="div"><g data-name="div"><g data-name="div"></g><g data-name="div"><g data-name="div"><rect x="0.00" y="100.00" width="390.00" height="800.45" fill="rgb(240, 232, 219)"></rect><g data-name="div"><g data-name="span"><rect x="21.61" y="115.18" width="86.08" height="21.64" fill="rgb(198, 58, 31)"></rect><text x="29.75" y="125.97" font-family="&#39;JetBrains Mono&#39;, ui-monospace, monospace" font-size="9" font-weight="400" letter-spacing="1.50" fill="rgb(245, 236, 217)" xml:space="preserve">成单 · DEAL</text></g><g data-name="div"><text x="22.00" y="174.76" font-family="&#39;DM Serif Display&#39;, &#39;Playfair Display&#39;, &#39;Songti SC&#39;, serif" font-size="48" font-weight="400" letter-spacing="-1.00" fill="rgb(31, 26, 20)" xml:space="preserve">从确认</text><g data-name="br"></g><g data-name="span"><text x="22.00" y="219.40" font-family="&#39;DM Serif Text&#39;, &#39;EB Garamond&#39;, &#39;Songti SC&#39;, serif" font-size="40" font-weight="400" font-style="italic" letter-spacing="-1.00" fill="rgb(122, 74, 40)" xml:space="preserve">到完工。</text></g></g><g data-name="div"><text x="22.00" y="256.46" font-family="&#39;DM Serif Text&#39;, &#39;EB Garamond&#39;, &#39;Songti SC&#39;, serif" font-size="13" font-weight="400" font-style="italic" fill="rgba(31, 26, 20, 0.5)" xml:space="preserve">#19a 确认接受之后,平台侧自动推进的成单与履约</text><text x="22.00" y="276.61" font-family="&#39;DM Serif Text&#39;, &#39;EB Garamond&#39;, &#39;Songti SC&#39;, serif" font-size="13" font-weight="400" font-style="italic" fill="rgba(31, 26, 20, 0.5)" xml:space="preserve">链路。</text></g></g><g data-name="div"><g data-name="div"><g data-name="div"><g data-name="div"><rect x="22.00" y="307.30" width="15.60" height="15.60" rx="50.00" ry="50.00" fill="rgb(122, 74, 40)" stroke="rgb(122, 74, 40)" stroke-width="0.8"></rect></g><g data-name="div"><rect x="29.05" y="322.90" width="1.50" height="67.10" fill="rgba(31, 26, 20, 0.2)"></rect></g></g><g data-name="div"><g data-name="div"><text x="49.60" y="320.46" font-family="&#39;DM Serif Display&#39;, &#39;Playfair Display&#39;, &#39;Songti SC&#39;, serif" font-size="18" font-weight="400" fill="rgb(122, 74, 40)" xml:space="preserve">已确认接受</text></g><g data-name="div"><text x="49.60" y="345.55" font-family="&#39;DM Serif Text&#39;, &#39;EB Garamond&#39;, &#39;Songti SC&#39;, serif" font-size="12.5" font-weight="400" font-style="italic" fill="rgba(31, 26, 20, 0.5)" xml:space="preserve">你已在 T3 窗口内确认(#19a),候选状态收敛为</text><text x="49.60" y="364.30" font-family="&#39;DM Serif Text&#39;, &#39;EB Garamond&#39;, &#39;Songti SC&#39;, serif" font-size="12.5" font-weight="400" font-style="italic" fill="rgba(31, 26, 20, 0.5)" xml:space="preserve">CONFIRMED。</text></g></g></g><g data-name="div"><g data-name="div"><g data-name="div"><rect x="22.00" y="394.00" width="15.60" height="15.60" rx="50.00" ry="50.00" fill="none" stroke="rgba(31, 26, 20, 0.2)" stroke-width="0.8"></rect></g><g data-name="div"><rect x="29.05" y="409.60" width="1.50" height="67.10" fill="rgba(31, 26, 20, 0.2)"></rect></g></g><g data-name="div" opacity="0.45"><g data-name="div"><text x="49.60" y="407.16" font-family="&#39;DM Serif Display&#39;, &#39;Playfair Display&#39;, &#39;Songti SC&#39;, serif" font-size="18" font-weight="400" fill="rgb(31, 26, 20)" xml:space="preserve">平台建沟通群</text></g><g data-name="div"><text x="49.60" y="432.25" font-family="&#39;DM Serif Text&#39;, &#39;EB Garamond&#39;, &#39;Songti SC&#39;, serif" font-size="12.5" font-weight="400" font-style="italic" fill="rgba(31, 26, 20, 0.5)" xml:space="preserve">平台拉应聘方 / 招聘方 / 中介方入群(#20–</text><text x="49.60" y="451.00" font-family="&#39;DM Serif Text&#39;, &#39;EB Garamond&#39;, &#39;Songti SC&#39;, serif" font-size="12.5" font-weight="400" font-style="italic" fill="rgba(31, 26, 20, 0.5)" xml:space="preserve">#22)。</text></g></g></g><g data-name="div"><g data-name="div"><g data-name="div"><rect x="22.00" y="480.70" width="15.60" height="15.60" rx="50.00" ry="50.00" fill="none" stroke="rgba(31, 26, 20, 0.2)" stroke-width="0.8"></rect></g><g data-name="div"><rect x="29.05" y="496.30" width="1.50" height="67.10" fill="rgba(31, 26, 20, 0.2)"></rect></g></g><g data-name="div" opacity="0.45"><g data-name="div"><text x="49.60" y="493.86" font-family="&#39;DM Serif Display&#39;, &#39;Playfair Display&#39;, &#39;Songti SC&#39;, serif" font-size="18" font-weight="400" fill="rgb(31, 26, 20)" xml:space="preserve">已成单</text></g><g data-name="div"><text x="49.60" y="518.95" font-family="&#39;DM Serif Text&#39;, &#39;EB Garamond&#39;, &#39;Songti SC&#39;, serif" font-size="12.5" font-weight="400" font-style="italic" fill="rgba(31, 26, 20, 0.5)" xml:space="preserve">所有入选方确认 + 拉群完成,招募令进入「已</text><text x="49.60" y="537.70" font-family="&#39;DM Serif Text&#39;, &#39;EB Garamond&#39;, &#39;Songti SC&#39;, serif" font-size="12.5" font-weight="400" font-style="italic" fill="rgba(31, 26, 20, 0.5)" xml:space="preserve">成单」。</text></g></g></g><g data-name="div"><g data-name="div"><g data-name="div"><rect x="22.00" y="567.40" width="15.60" height="15.60" rx="50.00" ry="50.00" fill="none" stroke="rgba(31, 26, 20, 0.2)" stroke-width="0.8"></rect></g><g data-name="div"><rect x="29.05" y="583.00" width="1.50" height="48.35" fill="rgba(31, 26, 20, 0.2)"></rect></g></g><g data-name="div" opacity="0.45"><g data-name="div"><text x="49.60" y="580.56" font-family="&#39;DM Serif Display&#39;, &#39;Playfair Display&#39;, &#39;Songti SC&#39;, serif" font-size="18" font-weight="400" fill="rgb(31, 26, 20)" xml:space="preserve">工作完成</text></g><g data-name="div"><text x="49.60" y="605.65" font-family="&#39;DM Serif Text&#39;, &#39;EB Garamond&#39;, &#39;Songti SC&#39;, serif" font-size="12.5" font-weight="400" font-style="italic" fill="rgba(31, 26, 20, 0.5)" xml:space="preserve">线下履约后,等招聘方在 T11 7 天内确认完工。</text></g></g></g><g data-name="div"><g data-name="div"><g data-name="div"><rect x="22.00" y="635.35" width="15.60" height="15.60" rx="50.00" ry="50.00" fill="none" stroke="rgba(31, 26, 20, 0.2)" stroke-width="0.8"></rect></g></g><g data-name="div" opacity="0.45"><g data-name="div"><text x="49.60" y="648.51" font-family="&#39;DM Serif Display&#39;, &#39;Playfair Display&#39;, &#39;Songti SC&#39;, serif" font-size="18" font-weight="400" fill="rgb(31, 26, 20)" xml:space="preserve">待双向评价</text></g><g data-name="div"><text x="49.60" y="673.60" font-family="&#39;DM Serif Text&#39;, &#39;EB Garamond&#39;, &#39;Songti SC&#39;, serif" font-size="12.5" font-weight="400" font-style="italic" fill="rgba(31, 26, 20, 0.5)" xml:space="preserve">完工确认后进入互评,沉淀为后续匹配的画像</text><text x="49.60" y="692.35" font-family="&#39;DM Serif Text&#39;, &#39;EB Garamond&#39;, &#39;Songti SC&#39;, serif" font-size="12.5" font-weight="400" font-style="italic" fill="rgba(31, 26, 20, 0.5)" xml:space="preserve">数据。</text></g></g></g></g><g data-name="div"><g data-name="button"><rect x="22.00" y="730.05" width="346.00" height="58.00" fill="rgb(122, 74, 40)"></rect><text x="139.10" y="762.23" font-family="&#39;DM Serif Display&#39;, &#39;Playfair Display&#39;, &#39;Songti SC&#39;, serif" font-size="19" font-weight="400" font-style="italic" fill="rgb(245, 236, 217)" xml:space="preserve">推 进 一 步   →</text></g><g data-name="button"><text x="161.20" y="824.25" font-family="&#39;JetBrains Mono&#39;, ui-monospace, monospace" font-size="10" font-weight="400" letter-spacing="2.00" fill="rgba(31, 26, 20, 0.5)" xml:space="preserve">↺ 重置原型</text></g></g></g></g><g data-name="div"></g></g></g></g><g data-name="div"><g data-name="div"><rect x="125.50" y="723.00" width="139.00" height="5.00" rx="100.00" ry="100.00" fill="rgba(0, 0, 0, 0.25)"></rect></g></g></g></svg>