<svg xmlns="http://www.w3.org/2000/svg" width="390" height="736" viewBox="0 0 390 736" font-family="Inter, &#39;PingFang SC&#39;, system-ui, sans-serif"><title>完工确认 · T11</title><g data-name="div"><rect x="0.00" y="0.00" width="390.00" height="736.00" rx="48.00" ry="48.00" fill="rgb(240, 232, 219)"></rect><g data-name="div"></g><g data-name="div"><rect x="0.00" y="0.00" width="390.00" height="100.00" fill="rgb(240, 232, 219)"></rect><g data-name="div"><g data-name="div"><g data-name="span"><text x="52.59" y="39.94" font-family="-apple-system, &#39;SF Pro&#39;, system-ui" font-size="17" font-weight="590" fill="rgb(0, 0, 0)" xml:space="preserve">9:41</text></g></g><g data-name="div"><g data-name="svg icon" transform="translate(279.75 31.00)"><svg width="19" height="12" viewBox="0 0 19 12"><rect x="0" y="7.5" width="3.2" height="4.5" rx="0.7" fill="#000"></rect><rect x="4.8" y="5" width="3.2" height="7" rx="0.7" fill="#000"></rect><rect x="9.6" y="2.5" width="3.2" height="9.5" rx="0.7" fill="#000"></rect><rect x="14.4" y="0" width="3.2" height="12" rx="0.7" fill="#000"></rect></svg></g><g data-name="svg icon" transform="translate(305.75 31.00)"><svg width="17" height="12" viewBox="0 0 17 12"><path d="M8.5 3.2C10.8 3.2 12.9 4.1 14.4 5.6L15.5 4.5C13.7 2.7 11.2 1.5 8.5 1.5C5.8 1.5 3.3 2.7 1.5 4.5L2.6 5.6C4.1 4.1 6.2 3.2 8.5 3.2Z" fill="#000"></path><path d="M8.5 6.8C9.9 6.8 11.1 7.3 12 8.2L13.1 7.1C11.8 5.9 10.2 5.1 8.5 5.1C6.8 5.1 5.2 5.9 3.9 7.1L5 8.2C5.9 7.3 7.1 6.8 8.5 6.8Z" fill="#000"></path><circle cx="8.5" cy="10.5" r="1.5" fill="#000"></circle></svg></g><g data-name="svg icon" transform="translate(329.75 30.00)"><svg width="27" height="14" viewBox="0 0 27 13"><rect x="0.5" y="0.5" width="23" height="12" rx="3.5" stroke="#000" stroke-opacity="0.35" fill="none"></rect><rect x="2" y="2" width="20" height="9" rx="2" fill="#000"></rect><path d="M25 4.5V8.5C25.8 8.2 26.5 7.2 26.5 6.5C26.5 5.8 25.8 4.8 25 4.5Z" fill="#000" fill-opacity="0.4"></path></svg></g></g></g></g><g data-name="div"><g data-name="div"><rect x="289.00" y="58.00" width="87.00" height="32.00" rx="16.00" ry="16.00" fill="rgba(0, 0, 0, 0.05)" stroke="rgba(0, 0, 0, 0.12)" stroke-width="0.8"></rect><g data-name="div"><g data-name="span"></g><g data-name="span"></g><g data-name="span"></g></g><g data-name="div"><rect x="333.74" y="65.00" width="1.00" height="18.00" fill="rgba(0, 0, 0, 0.2)"></rect></g><g data-name="svg icon" transform="translate(349.71 65.00)"><svg width="18" height="18" viewBox="0 0 18 18"><circle cx="9" cy="9" r="7" fill="none" stroke="#000" stroke-width="1.6"></circle><circle cx="9" cy="9" r="2.6" fill="#000"></circle></svg></g></g></g><g data-name="button"><g data-name="svg icon" transform="translate(24.50 64.00)"><svg width="11" height="20" viewBox="0 0 11 20" fill="none"><path d="M9.5 1.5 L1.5 10 L9.5 18.5" stroke="#000" stroke-width="2" stroke-linecap="round" stroke-linejoin="round"></path></svg></g></g><g data-name="div"><g data-name="div"><g data-name="div"><g data-name="div"></g><g data-name="div"><g data-name="div"><rect x="0.00" y="100.00" width="390.00" height="690.50" fill="rgb(240, 232, 219)"></rect><g data-name="div"><g data-name="span"><rect x="21.61" y="115.18" width="86.08" height="21.64" fill="rgb(198, 58, 31)"></rect><text x="29.75" y="125.97" font-family="&#39;JetBrains Mono&#39;, ui-monospace, monospace" font-size="9" font-weight="400" letter-spacing="1.50" fill="rgb(245, 236, 217)" xml:space="preserve">完工 · DONE</text></g><g data-name="div"><text x="22.00" y="175.60" font-family="&#39;DM Serif Display&#39;, &#39;Playfair Display&#39;, &#39;Songti SC&#39;, serif" font-size="50" font-weight="400" letter-spacing="-1.00" fill="rgb(31, 26, 20)" xml:space="preserve">确认</text><g data-name="br"></g><g data-name="span"><text x="22.00" y="222.84" font-family="&#39;DM Serif Text&#39;, &#39;EB Garamond&#39;, &#39;Songti SC&#39;, serif" font-size="42" font-weight="400" font-style="italic" letter-spacing="-1.00" fill="rgb(122, 74, 40)" xml:space="preserve">完工。</text></g></g><g data-name="div"><text x="22.00" y="260.06" font-family="&#39;DM Serif Text&#39;, &#39;EB Garamond&#39;, &#39;Songti SC&#39;, serif" font-size="13" font-weight="400" font-style="italic" fill="rgba(31, 26, 20, 0.5)" xml:space="preserve">线下履约结束后,招聘方在 T11 7 天窗口内确认完工,</text><text x="22.00" y="280.21" font-family="&#39;DM Serif Text&#39;, &#39;EB Garamond&#39;, &#39;Songti SC&#39;, serif" font-size="13" font-weight="400" font-style="italic" fill="rgba(31, 26, 20, 0.5)" xml:space="preserve">触发结算与互评。</text></g></g><g data-name="div"><rect x="22.00" y="302.90" width="346.00" height="167.20" fill="rgb(247, 241, 230)" stroke="rgba(31, 26, 20, 0.2)" stroke-width="0.8"></rect><g data-name="div"><g data-name="span"><rect x="36.36" y="295.58" width="131.18" height="26.25" fill="rgb(122, 74, 40)"></rect><text x="44.55" y="306.51" font-family="&#39;JetBrains Mono&#39;, ui-monospace, monospace" font-size="9" font-weight="400" letter-spacing="1.50" fill="rgb(245, 236, 217)" xml:space="preserve">ZARA · 6/21 已履约</text></g></g><g data-name="div"><g data-name="span"><text x="38.80" y="347.49" font-family="&#39;JetBrains Mono&#39;, ui-monospace, monospace" font-size="9.5" font-weight="400" letter-spacing="1.00" fill="rgba(31, 26, 20, 0.5)" xml:space="preserve">招募令</text></g><g data-name="span"><text x="190.10" y="346.40" font-family="&#39;DM Serif Text&#39;, &#39;EB Garamond&#39;, &#39;Songti SC&#39;, serif" font-size="15" font-weight="400" fill="rgb(31, 26, 20)" xml:space="preserve">周末品牌快闪 · 兼职导购</text></g></g><g data-name="div"><g data-name="span"><text x="38.80" y="390.69" font-family="&#39;JetBrains Mono&#39;, ui-monospace, monospace" font-size="9.5" font-weight="400" letter-spacing="1.00" fill="rgba(31, 26, 20, 0.5)" xml:space="preserve">到岗 / 需求</text></g><g data-name="span"><text x="305.24" y="389.60" font-family="&#39;DM Serif Text&#39;, &#39;EB Garamond&#39;, &#39;Songti SC&#39;, serif" font-size="15" font-weight="400" fill="rgb(31, 26, 20)" xml:space="preserve">2 / 2 人</text></g></g><g data-name="div"><g data-name="span"><text x="38.80" y="433.89" font-family="&#39;JetBrains Mono&#39;, ui-monospace, monospace" font-size="9.5" font-weight="400" letter-spacing="1.00" fill="rgba(31, 26, 20, 0.5)" xml:space="preserve">应结报酬</text></g><g data-name="span"><text x="237.13" y="432.80" font-family="&#39;DM Serif Text&#39;, &#39;EB Garamond&#39;, &#39;Songti SC&#39;, serif" font-size="15" font-weight="400" fill="rgb(198, 58, 31)" xml:space="preserve">¥480(2 人 × ¥240)</text></g></g></g><g data-name="div"><rect x="22.00" y="488.10" width="346.00" height="104.40" fill="none" stroke="rgba(31, 26, 20, 0.2)" stroke-width="0.8"></rect><g data-name="div"><text x="125.55" y="512.28" font-family="&#39;JetBrains Mono&#39;, ui-monospace, monospace" font-size="9" font-weight="400" letter-spacing="1.50" fill="rgba(31, 26, 20, 0.5)" xml:space="preserve">完工确认窗口 · T11 · 7D</text></g><g data-name="div"><text x="97.80" y="541.78" font-family="&#39;JetBrains Mono&#39;, ui-monospace, monospace" font-size="24" font-weight="400" letter-spacing="1.00" fill="rgb(122, 74, 40)" xml:space="preserve">6 天 22:58:44</text></g><g data-name="div"><text x="44.41" y="568.74" font-family="&#39;DM Serif Text&#39;, &#39;EB Garamond&#39;, &#39;Songti SC&#39;, serif" font-size="12" font-weight="400" font-style="italic" fill="rgba(31, 26, 20, 0.5)" xml:space="preserve">逾期未确认将按 PRD §6.2 异常处理表处理(本原型不展开)</text></g></g><g data-name="div"><g data-name="button"><rect x="22.00" y="612.50" width="346.00" height="58.00" fill="rgb(122, 74, 40)"></rect><text x="139.10" y="644.68" font-family="&#39;DM Serif Display&#39;, &#39;Playfair Display&#39;, &#39;Songti SC&#39;, serif" font-size="19" font-weight="400" font-style="italic" fill="rgb(245, 236, 217)" xml:space="preserve">确 认 完 工   →</text></g><g data-name="button"><rect x="22.00" y="682.50" width="346.00" height="40.00" fill="none" stroke="rgb(198, 58, 31)" stroke-width="0.8"></rect><text x="135.90" y="704.32" font-family="&#39;JetBrains Mono&#39;, ui-monospace, monospace" font-size="11" font-weight="400" letter-spacing="2.00" fill="rgb(198, 58, 31)" xml:space="preserve">有异议 · 提交申诉</text></g></g></g></g><g data-name="div"></g></g></g></g><g data-name="div"><g data-name="div"><rect x="125.50" y="723.00" width="139.00" height="5.00" rx="100.00" ry="100.00" fill="rgba(0, 0, 0, 0.25)"></rect></g></g></g></svg>